<?xml version="1.0" encoding="UTF-8" standalone="no"?>
<!DOCTYPE svg PUBLIC "-//W3C//DTD SVG 1.1//EN" "http://www.w3.org/Graphics/SVG/1.1/DTD/svg11.dtd">
<svg width="100%" height="100%" viewBox="0 0 330 120" version="1.1" xmlns="http://www.w3.org/2000/svg" xmlns:xlink="http://www.w3.org/1999/xlink" xml:space="preserve" xmlns:serif="http://www.serif.com/" style="fill-rule:evenodd;clip-rule:evenodd;stroke-linejoin:round;stroke-miterlimit:2;">
    <g id="logo" transform="matrix(1,0,0,1,7.28318,1.52)">
        <g id="Logo-Desktop" serif:id="Logo Desktop">
            <g id="Logo">
                <g transform="matrix(1,0,0,1,-36,-67.52)">
                    <text x="27px" y="145.52px" style="font-family:'LibreBaskerville-Regular', 'Libre Baskerville';font-size:144px;fill:rgb(246,173,85);">s</text>
                </g>
                <g transform="matrix(1,0,0,1,-1,-12)">
                    <text x="53px" y="74.9px" style="font-family:'LibreBaskerville-Regular', 'Libre Baskerville';font-size:30px;fill:rgb(246,173,85);">usanne</text>
                </g>
                <g transform="matrix(1,0,0,1,-3,-22.25)">
                    <text x="164px" y="100.585px" style="font-family:'LibreBaskerville-Regular', 'Libre Baskerville';font-size:99.5px;fill:rgb(64,64,64);">G</text>
                </g>
                <g transform="matrix(1,0,0,1,-7,-45.5)">
                    <text x="256px" y="106.9px" style="font-family:'LibreBaskerville-Regular', 'Libre Baskerville';font-size:30px;fill:rgb(64,64,64);">rebe</text>
                </g>
            </g>
            <g id="Tagline" transform="matrix(0.399319,0,0,0.422689,-44.3588,-81.6171)">
                <g transform="matrix(2.50426,0,0,2.36581,-160.46,-617.483)">
                    <text x="110px" y="455.2px" style="font-family:'LibreBaskerville-Italic', 'Libre Baskerville';font-style:italic;font-size:20px;fill:rgb(64,64,64);">coaching</text>
                </g>
                <g transform="matrix(2.50426,0,0,2.36581,122.521,-617.483)">
                    <text x="110px" y="455.2px" style="font-family:'LibreBaskerville-Italic', 'Libre Baskerville';font-style:italic;font-size:20px;fill:rgb(64,64,64);">mediation</text>
                </g>
                <g transform="matrix(2.50426,0,0,2.36581,438.058,-617.483)">
                    <text x="110px" y="455.2px" style="font-family:'LibreBaskerville-Italic', 'Libre Baskerville';font-style:italic;font-size:20px;fill:rgb(64,64,64);">training</text>
                </g>
                <g transform="matrix(1,0,0,1,7.93892,-4.102)">
                    <circle cx="350" cy="450" r="10" style="fill:rgb(255,180,63);"/>
                </g>
                <g transform="matrix(1,0,0,1,320.972,-3.76811)">
                    <circle cx="350" cy="450" r="10" style="fill:rgb(255,180,63);"/>
                </g>
            </g>
        </g>
    </g>
</svg>
