<?xml version="1.0" encoding="UTF-8" standalone="no"?>
<!DOCTYPE svg PUBLIC "-//W3C//DTD SVG 1.1//EN" "http://www.w3.org/Graphics/SVG/1.1/DTD/svg11.dtd">
<svg width="100%" height="100%" viewBox="0 0 320 140" version="1.1" xmlns="http://www.w3.org/2000/svg" xmlns:xlink="http://www.w3.org/1999/xlink" xml:space="preserve" xmlns:serif="http://www.serif.com/" style="fill-rule:evenodd;clip-rule:evenodd;stroke-linejoin:round;stroke-miterlimit:2;">
    <g id="Logo-Desktop" serif:id="Logo Desktop" transform="matrix(1,0,0,1,0,-0.24)">
        <g id="Logo" transform="matrix(1,0,0,1,2.5,0)">
            <g transform="matrix(1,0,0,1,60,-59.76)">
                <text x="27px" y="125.6px" style="font-family:'LibreBaskerville-Regular', 'Libre Baskerville';font-size:120px;fill:rgb(246,173,85);">s</text>
            </g>
            <g transform="matrix(1,0,0,1,-51,21.1)">
                <text x="53px" y="74.9px" style="font-family:'LibreBaskerville-Regular', 'Libre Baskerville';font-size:30px;fill:rgb(246,173,85);">Susanne</text>
            </g>
            <g transform="matrix(1,0,0,1,-27,-51.5)">
                <text x="164px" y="117.6px" style="font-family:'LibreBaskerville-Regular', 'Libre Baskerville';font-size:120px;fill:rgb(64,64,64);">g</text>
            </g>
            <g transform="matrix(1,0,0,1,-40,-10.9)">
                <text x="256px" y="106.9px" style="font-family:'LibreBaskerville-Regular', 'Libre Baskerville';font-size:30px;fill:rgb(64,64,64);">Grebe</text>
            </g>
        </g>
        <g id="Tagline" transform="matrix(0.398056,0,0,0.422689,-43.7798,-59.6171)">
            <g transform="matrix(2.51221,0,0,2.36581,-161.335,-617.483)">
                <text x="110px" y="455.2px" style="font-family:'LibreBaskerville-Italic', 'Libre Baskerville';font-style:italic;font-size:20px;fill:rgb(64,64,64);">coaching</text>
            </g>
            <g transform="matrix(2.51221,0,0,2.36581,120.483,-617.483)">
                <text x="110px" y="455.2px" style="font-family:'LibreBaskerville-Italic', 'Libre Baskerville';font-style:italic;font-size:20px;fill:rgb(64,64,64);">mediation</text>
            </g>
            <g transform="matrix(2.51221,0,0,2.36581,435.012,-617.483)">
                <text x="110px" y="455.2px" style="font-family:'LibreBaskerville-Italic', 'Libre Baskerville';font-style:italic;font-size:20px;fill:rgb(64,64,64);">training</text>
            </g>
            <g transform="matrix(1,0,0,1,7.90483,-4.102)">
                <circle cx="350" cy="450" r="10" style="fill:rgb(255,180,63);"/>
            </g>
            <g transform="matrix(1,0,0,1,323.442,-4.102)">
                <circle cx="350" cy="450" r="10" style="fill:rgb(255,180,63);"/>
            </g>
        </g>
    </g>
</svg>
